<svg width="130" height="40" viewBox="0 0 130 40" fill="none" xmlns="http://www.w3.org/2000/svg">
<path fill-rule="evenodd" clip-rule="evenodd" d="M13.3333 0C5.96954 0 0 5.96954 0 13.3333V26.6667C0 34.0305 5.96954 40 13.3333 40H26.6667C34.0305 40 40 34.0305 40 26.6667V13.3333C40 5.96954 34.0305 0 26.6667 0H13.3333ZM10.216 29.3323L14.3088 28.2566C16.1138 29.3396 18.088 30.0013 20.2118 30.0013C26.1673 30.0013 31.021 25.1608 30.9947 19.2052C31.0166 13.3189 26.0746 8.38299 20.1987 8.38299C14.2432 8.38299 9.38955 13.2366 9.38955 19.1921C9.39119 21.4171 10.1086 23.4904 11.3048 25.3444L10.216 29.3323Z" fill="#2AC88F"/>
<path d="M23.9242 20.8581C23.6225 20.7532 23.4126 20.7007 23.1896 21.0155C22.9666 21.3435 22.35 22.0781 22.1664 22.288C21.9827 22.511 21.786 22.5372 21.458 22.3667C19.5833 21.4668 18.1196 20.3008 17.0373 18.4969C16.8536 18.1689 17.011 17.9984 17.1816 17.8279C17.2613 17.7481 17.4532 17.4761 17.6355 17.2177C17.7831 17.0084 17.9245 16.8081 17.9949 16.726C18.0998 16.503 18.0474 16.3193 17.9687 16.1619C17.8899 16.0045 17.2341 14.4041 16.9717 13.7482C16.7397 13.1915 16.4975 13.1885 16.3085 13.1862C16.1141 13.1839 15.9198 13.184 15.7254 13.1841L15.6074 13.1841C15.2205 13.1841 14.9154 13.4009 14.6654 13.6753C14.3282 14.0454 13.6135 14.8296 13.6135 16.3062C13.6135 17.8982 14.7688 19.4383 14.9359 19.661C16.439 21.666 18.1301 23.5535 20.4873 24.5705C21.2612 24.9115 21.8647 25.1083 22.3369 25.2526C23.1109 25.5018 23.8192 25.4625 24.3833 25.3838C25.013 25.292 26.3116 24.5967 26.574 23.8359C26.8495 23.075 26.8495 22.4323 26.7576 22.288C26.684 22.1722 26.5428 22.1071 26.3205 22.0046C26.0001 21.8569 25.6843 21.6979 25.3684 21.5388C24.8924 21.2991 24.4162 21.0594 23.9242 20.8581Z" fill="#2AC88F"/>
<path d="M51.8857 26L48.6016 14.3636H50.8686L52.9652 22.9148H53.0732L55.3118 14.3636H57.3743L59.6186 22.9205H59.7209L61.8175 14.3636H64.0845L60.8004 26H58.7209L56.3913 17.8352H56.3004L53.9652 26H51.8857ZM67.5121 20.8864V26H65.4553V14.3636H67.4666V18.7557H67.5689C67.7734 18.2633 68.0897 17.875 68.5178 17.5909C68.9496 17.303 69.4988 17.1591 70.1655 17.1591C70.7715 17.1591 71.3 17.286 71.7507 17.5398C72.2015 17.7936 72.55 18.1648 72.7962 18.6534C73.0462 19.142 73.1712 19.7386 73.1712 20.4432V26H71.1143V20.7614C71.1143 20.1742 70.9628 19.7178 70.6598 19.392C70.3606 19.0625 69.9401 18.8977 69.3984 18.8977C69.0348 18.8977 68.709 18.9773 68.4212 19.1364C68.1371 19.2917 67.9136 19.517 67.7507 19.8125C67.5916 20.108 67.5121 20.4659 67.5121 20.8864ZM77.7791 26.1761C77.2261 26.1761 76.728 26.0777 76.2848 25.8807C75.8454 25.6799 75.4969 25.3845 75.2393 24.9943C74.9856 24.6042 74.8587 24.1231 74.8587 23.5511C74.8587 23.0587 74.9496 22.6515 75.1314 22.3295C75.3132 22.0076 75.5613 21.75 75.8757 21.5568C76.1901 21.3636 76.5443 21.2178 76.9382 21.1193C77.3359 21.017 77.7469 20.9432 78.1712 20.8977C78.6825 20.8447 79.0973 20.7973 79.4155 20.7557C79.7337 20.7102 79.9647 20.642 80.1087 20.5511C80.2564 20.4564 80.3303 20.3106 80.3303 20.1136V20.0795C80.3303 19.6515 80.2034 19.3201 79.9496 19.0852C79.6958 18.8504 79.3303 18.733 78.853 18.733C78.3492 18.733 77.9496 18.8428 77.6541 19.0625C77.3625 19.2822 77.1655 19.5417 77.0632 19.8409L75.1428 19.5682C75.2943 19.0379 75.5443 18.5947 75.8928 18.2386C76.2412 17.8788 76.6674 17.6098 77.1712 17.4318C77.675 17.25 78.2318 17.1591 78.8416 17.1591C79.2621 17.1591 79.6806 17.2083 80.0973 17.3068C80.514 17.4053 80.8946 17.5682 81.2393 17.7955C81.584 18.0189 81.8606 18.3239 82.0689 18.7102C82.281 19.0966 82.3871 19.5795 82.3871 20.1591V26H80.4098V24.8011H80.3416C80.2166 25.0436 80.0405 25.2708 79.8132 25.483C79.5897 25.6913 79.3075 25.8598 78.9666 25.9886C78.6295 26.1136 78.2337 26.1761 77.7791 26.1761ZM78.3132 24.6648C78.7261 24.6648 79.084 24.5833 79.3871 24.4205C79.6901 24.2538 79.9231 24.0341 80.0859 23.7614C80.2526 23.4886 80.3359 23.1913 80.3359 22.8693V21.8409C80.2715 21.8939 80.1617 21.9432 80.0064 21.9886C79.8549 22.0341 79.6844 22.0739 79.495 22.108C79.3056 22.142 79.1181 22.1723 78.9325 22.1989C78.7469 22.2254 78.5859 22.2481 78.4496 22.267C78.1428 22.3087 77.8681 22.3769 77.6257 22.4716C77.3833 22.5663 77.192 22.6989 77.0518 22.8693C76.9117 23.036 76.8416 23.2519 76.8416 23.517C76.8416 23.8958 76.9799 24.1818 77.2564 24.375C77.5329 24.5682 77.8852 24.6648 78.3132 24.6648ZM88.8132 17.2727V18.8636H83.7962V17.2727H88.8132ZM85.0348 15.1818H87.0916V23.375C87.0916 23.6515 87.1333 23.8636 87.2166 24.0114C87.3037 24.1553 87.4174 24.2538 87.5575 24.3068C87.6977 24.3598 87.853 24.3864 88.0234 24.3864C88.1522 24.3864 88.2696 24.3769 88.3757 24.358C88.4856 24.339 88.5689 24.322 88.6257 24.3068L88.9723 25.9148C88.8625 25.9527 88.7053 25.9943 88.5007 26.0398C88.3 26.0852 88.0537 26.1117 87.7621 26.1193C87.2469 26.1345 86.7829 26.0568 86.37 25.8864C85.9571 25.7121 85.6295 25.4432 85.3871 25.0795C85.1484 24.7159 85.031 24.2614 85.0348 23.7159V15.1818ZM97.3061 19.5795L95.4311 19.7841C95.3781 19.5947 95.2853 19.4167 95.1527 19.25C95.0239 19.0833 94.8497 18.9489 94.63 18.8466C94.4103 18.7443 94.1413 18.6932 93.8232 18.6932C93.3951 18.6932 93.0353 18.786 92.7436 18.9716C92.4557 19.1572 92.3137 19.3977 92.3175 19.6932C92.3137 19.947 92.4065 20.1534 92.5959 20.3125C92.7891 20.4716 93.1072 20.6023 93.5504 20.7045L95.0391 21.0227C95.8648 21.2008 96.4785 21.483 96.88 21.8693C97.2853 22.2557 97.4898 22.7614 97.4936 23.3864C97.4898 23.9356 97.3288 24.4205 97.0107 24.8409C96.6963 25.2576 96.2588 25.5833 95.6982 25.8182C95.1375 26.053 94.4936 26.1705 93.7663 26.1705C92.6982 26.1705 91.8383 25.947 91.1868 25.5C90.5353 25.0492 90.147 24.4223 90.022 23.6193L92.0277 23.4261C92.1186 23.8201 92.3118 24.1174 92.6072 24.3182C92.9027 24.5189 93.2872 24.6193 93.7607 24.6193C94.2493 24.6193 94.6413 24.5189 94.9368 24.3182C95.236 24.1174 95.3857 23.8693 95.3857 23.5739C95.3857 23.3239 95.2891 23.1174 95.0959 22.9545C94.9065 22.7917 94.611 22.6667 94.2095 22.5795L92.7209 22.267C91.8838 22.0928 91.2644 21.7992 90.8629 21.3864C90.4614 20.9697 90.2625 20.4432 90.2663 19.8068C90.2625 19.2689 90.4084 18.803 90.7038 18.4091C91.0031 18.0114 91.4179 17.7045 91.9482 17.4886C92.4822 17.2689 93.0978 17.1591 93.7947 17.1591C94.8175 17.1591 95.6224 17.3769 96.2095 17.8125C96.8004 18.2481 97.166 18.8371 97.3061 19.5795ZM100.775 26H98.5249L102.621 14.3636H105.224L109.326 26H107.076L103.968 16.75H103.877L100.775 26ZM100.849 21.4375H106.985V23.1307H100.849V21.4375ZM110.768 29.2727V17.2727H112.79V18.7159H112.91C113.016 18.5038 113.165 18.2784 113.359 18.0398C113.552 17.7973 113.813 17.5909 114.143 17.4205C114.472 17.2462 114.893 17.1591 115.404 17.1591C116.078 17.1591 116.686 17.3314 117.228 17.6761C117.773 18.017 118.205 18.5227 118.523 19.1932C118.845 19.8598 119.006 20.678 119.006 21.6477C119.006 22.6061 118.849 23.4205 118.535 24.0909C118.22 24.7614 117.792 25.2727 117.251 25.625C116.709 25.9773 116.095 26.1534 115.41 26.1534C114.91 26.1534 114.495 26.0701 114.165 25.9034C113.836 25.7367 113.571 25.536 113.37 25.3011C113.173 25.0625 113.02 24.8371 112.91 24.625H112.825V29.2727H110.768ZM112.785 21.6364C112.785 22.2008 112.864 22.6951 113.023 23.1193C113.186 23.5436 113.419 23.875 113.722 24.1136C114.029 24.3485 114.4 24.4659 114.836 24.4659C115.29 24.4659 115.671 24.3447 115.978 24.1023C116.285 23.8561 116.516 23.5208 116.671 23.0966C116.83 22.6686 116.91 22.1818 116.91 21.6364C116.91 21.0947 116.832 20.6136 116.677 20.1932C116.522 19.7727 116.29 19.4432 115.984 19.2045C115.677 18.9659 115.294 18.8466 114.836 18.8466C114.397 18.8466 114.023 18.9621 113.717 19.1932C113.41 19.4242 113.177 19.7481 113.018 20.1648C112.862 20.5814 112.785 21.072 112.785 21.6364ZM120.768 29.2727V17.2727H122.79V18.7159H122.91C123.016 18.5038 123.165 18.2784 123.359 18.0398C123.552 17.7973 123.813 17.5909 124.143 17.4205C124.472 17.2462 124.893 17.1591 125.404 17.1591C126.078 17.1591 126.686 17.3314 127.228 17.6761C127.773 18.017 128.205 18.5227 128.523 19.1932C128.845 19.8598 129.006 20.678 129.006 21.6477C129.006 22.6061 128.849 23.4205 128.535 24.0909C128.22 24.7614 127.792 25.2727 127.251 25.625C126.709 25.9773 126.095 26.1534 125.41 26.1534C124.91 26.1534 124.495 26.0701 124.165 25.9034C123.836 25.7367 123.571 25.536 123.37 25.3011C123.173 25.0625 123.02 24.8371 122.91 24.625H122.825V29.2727H120.768ZM122.785 21.6364C122.785 22.2008 122.864 22.6951 123.023 23.1193C123.186 23.5436 123.419 23.875 123.722 24.1136C124.029 24.3485 124.4 24.4659 124.836 24.4659C125.29 24.4659 125.671 24.3447 125.978 24.1023C126.285 23.8561 126.516 23.5208 126.671 23.0966C126.83 22.6686 126.91 22.1818 126.91 21.6364C126.91 21.0947 126.832 20.6136 126.677 20.1932C126.522 19.7727 126.29 19.4432 125.984 19.2045C125.677 18.9659 125.294 18.8466 124.836 18.8466C124.397 18.8466 124.023 18.9621 123.717 19.1932C123.41 19.4242 123.177 19.7481 123.018 20.1648C122.862 20.5814 122.785 21.072 122.785 21.6364Z" fill="#2AC88F"/>
</svg>
