<svg width="121" height="40" viewBox="0 0 121 40" fill="none" xmlns="http://www.w3.org/2000/svg">
<path fill-rule="evenodd" clip-rule="evenodd" d="M13.3333 0C5.96954 0 0 5.96954 0 13.3333V26.6667C0 34.0305 5.96954 40 13.3333 40H26.6667C34.0305 40 40 34.0305 40 26.6667V13.3333C40 5.96954 34.0305 0 26.6667 0H13.3333ZM20.206 14.8198C18.4204 15.5631 14.849 17.1016 9.49203 19.435C8.62216 19.7809 8.1657 20.1194 8.12551 20.4501C8.05482 21.0088 8.7545 21.2292 9.70524 21.5286C9.83564 21.5696 9.97076 21.6122 10.1093 21.6573C11.048 21.9622 12.3112 22.319 12.9658 22.3331C13.5629 22.346 14.2261 22.1006 14.9581 21.597C19.9649 18.2189 22.5458 16.5113 22.7094 16.4746C22.8242 16.4487 22.9821 16.416 23.0884 16.5116C23.1975 16.6069 23.186 16.7878 23.1745 16.8363C23.1068 17.1314 20.3687 19.6771 18.9438 21.0018C18.4959 21.4183 18.1777 21.7141 18.1132 21.7813C17.969 21.9312 17.822 22.0729 17.6807 22.2091C16.8094 23.0489 16.1558 23.679 17.717 24.7076C18.474 25.2062 19.0782 25.6178 19.6821 26.0291C20.3309 26.471 20.9794 26.9127 21.8166 27.4619C22.0319 27.603 22.2375 27.7495 22.4377 27.8922C23.1986 28.4347 23.8821 28.9219 24.7276 28.8442C25.2185 28.7991 25.7267 28.3375 25.9822 26.9606C26.5908 23.7065 27.7879 16.6563 28.0635 13.751C28.0894 13.4966 28.0578 13.1708 28.0348 13.0278C28.009 12.8847 27.9573 12.6809 27.7736 12.5302C27.5525 12.3515 27.2138 12.3139 27.0616 12.3163C26.3697 12.3288 25.3104 12.6974 20.206 14.8198Z" fill="#3E8BFF"/>
<path d="M49.0504 16.1307V14.3636H58.3345V16.1307H54.7379V26H52.647V16.1307H49.0504ZM62.6314 26.1705C61.7564 26.1705 61.0007 25.9886 60.3643 25.625C59.7318 25.2576 59.245 24.7386 58.9041 24.0682C58.5632 23.3939 58.3928 22.6004 58.3928 21.6875C58.3928 20.7898 58.5632 20.0019 58.9041 19.3239C59.2488 18.642 59.7299 18.1117 60.3473 17.733C60.9647 17.3504 61.6901 17.1591 62.5234 17.1591C63.0613 17.1591 63.5689 17.2462 64.0462 17.4205C64.5272 17.5909 64.9515 17.8561 65.3189 18.2159C65.6901 18.5758 65.9818 19.0341 66.1939 19.5909C66.406 20.1439 66.5121 20.803 66.5121 21.5682V22.1989H59.3587V20.8125H64.5405C64.5367 20.4186 64.4515 20.0682 64.2848 19.7614C64.1181 19.4508 63.8852 19.2064 63.5859 19.0284C63.2905 18.8504 62.9458 18.7614 62.5518 18.7614C62.1314 18.7614 61.7621 18.8636 61.4439 19.0682C61.1257 19.2689 60.8776 19.5341 60.6996 19.8636C60.5253 20.1894 60.4363 20.5473 60.4325 20.9375V22.1477C60.4325 22.6553 60.5253 23.0909 60.7109 23.4545C60.8965 23.8144 61.156 24.0909 61.4893 24.2841C61.8227 24.4735 62.2128 24.5682 62.6598 24.5682C62.959 24.5682 63.2299 24.5265 63.4723 24.4432C63.7147 24.3561 63.925 24.2292 64.103 24.0625C64.281 23.8958 64.4155 23.6894 64.5064 23.4432L66.4268 23.6591C66.3056 24.1667 66.0746 24.6098 65.7337 24.9886C65.3965 25.3636 64.9647 25.6553 64.4382 25.8636C63.9117 26.0682 63.3094 26.1705 62.6314 26.1705ZM70.3089 14.3636V26H68.2521V14.3636H70.3089ZM76.2876 26.1705C75.4126 26.1705 74.657 25.9886 74.0206 25.625C73.388 25.2576 72.9013 24.7386 72.5604 24.0682C72.2195 23.3939 72.049 22.6004 72.049 21.6875C72.049 20.7898 72.2195 20.0019 72.5604 19.3239C72.9051 18.642 73.3861 18.1117 74.0036 17.733C74.621 17.3504 75.3464 17.1591 76.1797 17.1591C76.7176 17.1591 77.2251 17.2462 77.7024 17.4205C78.1835 17.5909 78.6077 17.8561 78.9751 18.2159C79.3464 18.5758 79.638 19.0341 79.8501 19.5909C80.0623 20.1439 80.1683 20.803 80.1683 21.5682V22.1989H73.0149V20.8125H78.1967C78.1929 20.4186 78.1077 20.0682 77.9411 19.7614C77.7744 19.4508 77.5414 19.2064 77.2422 19.0284C76.9467 18.8504 76.602 18.7614 76.2081 18.7614C75.7876 18.7614 75.4183 18.8636 75.1001 19.0682C74.782 19.2689 74.5339 19.5341 74.3558 19.8636C74.1816 20.1894 74.0926 20.5473 74.0888 20.9375V22.1477C74.0888 22.6553 74.1816 23.0909 74.3672 23.4545C74.5528 23.8144 74.8123 24.0909 75.1456 24.2841C75.4789 24.4735 75.8691 24.5682 76.3161 24.5682C76.6153 24.5682 76.8861 24.5265 77.1286 24.4432C77.371 24.3561 77.5812 24.2292 77.7592 24.0625C77.9373 23.8958 78.0717 23.6894 78.1626 23.4432L80.0831 23.6591C79.9619 24.1667 79.7308 24.6098 79.3899 24.9886C79.0528 25.3636 78.621 25.6553 78.0945 25.8636C77.5679 26.0682 76.9657 26.1705 76.2876 26.1705ZM85.7038 29.4545C84.9652 29.4545 84.3307 29.3542 83.8004 29.1534C83.2701 28.9564 82.844 28.6913 82.522 28.358C82.2 28.0246 81.9766 27.6553 81.8516 27.25L83.7038 26.8011C83.7872 26.9716 83.9084 27.1402 84.0675 27.3068C84.2266 27.4773 84.4406 27.6174 84.7095 27.7273C84.9822 27.8409 85.325 27.8977 85.7379 27.8977C86.3213 27.8977 86.8042 27.7557 87.1868 27.4716C87.5694 27.1913 87.7607 26.7292 87.7607 26.0852V24.4318H87.6584C87.5523 24.6439 87.397 24.8617 87.1925 25.0852C86.9917 25.3087 86.7247 25.4962 86.3913 25.6477C86.0618 25.7992 85.647 25.875 85.147 25.875C84.4766 25.875 83.8686 25.7178 83.3232 25.4034C82.7815 25.0852 82.3497 24.6117 82.0277 23.983C81.7095 23.3504 81.5504 22.5587 81.5504 21.608C81.5504 20.6496 81.7095 19.8409 82.0277 19.1818C82.3497 18.5189 82.7834 18.017 83.3288 17.6761C83.8743 17.3314 84.4822 17.1591 85.1527 17.1591C85.6641 17.1591 86.0845 17.2462 86.4141 17.4205C86.7474 17.5909 87.0125 17.7973 87.2095 18.0398C87.4065 18.2784 87.5561 18.5038 87.6584 18.7159H87.772V17.2727H89.8004V26.142C89.8004 26.8883 89.6224 27.5057 89.2663 27.9943C88.9103 28.483 88.4235 28.8485 87.8061 29.0909C87.1887 29.3333 86.4879 29.4545 85.7038 29.4545ZM85.7209 24.2614C86.1565 24.2614 86.5277 24.1553 86.8345 23.9432C87.1413 23.7311 87.3743 23.4261 87.5334 23.0284C87.6925 22.6307 87.772 22.1534 87.772 21.5966C87.772 21.0473 87.6925 20.5663 87.5334 20.1534C87.3781 19.7405 87.147 19.4205 86.8402 19.1932C86.5372 18.9621 86.1641 18.8466 85.7209 18.8466C85.2625 18.8466 84.88 18.9659 84.5732 19.2045C84.2663 19.4432 84.0353 19.7708 83.88 20.1875C83.7247 20.6004 83.647 21.0701 83.647 21.5966C83.647 22.1307 83.7247 22.5985 83.88 23C84.0391 23.3977 84.272 23.7083 84.5788 23.9318C84.8894 24.1515 85.2701 24.2614 85.7209 24.2614ZM91.9084 26V17.2727H93.9027V18.7273H93.9936C94.1527 18.2235 94.4254 17.8352 94.8118 17.5625C95.2019 17.286 95.647 17.1477 96.147 17.1477C96.2607 17.1477 96.3875 17.1534 96.5277 17.1648C96.6716 17.1723 96.791 17.1856 96.8857 17.2045V19.0966C96.7985 19.0663 96.6603 19.0398 96.4709 19.017C96.2853 18.9905 96.1054 18.9773 95.9311 18.9773C95.5561 18.9773 95.219 19.0587 94.9197 19.2216C94.6243 19.3807 94.3913 19.6023 94.2209 19.8864C94.0504 20.1705 93.9652 20.4981 93.9652 20.8693V26H91.9084ZM100.607 26.1761C100.054 26.1761 99.5561 26.0777 99.1129 25.8807C98.6735 25.6799 98.325 25.3845 98.0675 24.9943C97.8137 24.6042 97.6868 24.1231 97.6868 23.5511C97.6868 23.0587 97.7777 22.6515 97.9595 22.3295C98.1413 22.0076 98.3894 21.75 98.7038 21.5568C99.0182 21.3636 99.3724 21.2178 99.7663 21.1193C100.164 21.017 100.575 20.9432 100.999 20.8977C101.511 20.8447 101.925 20.7973 102.244 20.7557C102.562 20.7102 102.793 20.642 102.937 20.5511C103.085 20.4564 103.158 20.3106 103.158 20.1136V20.0795C103.158 19.6515 103.031 19.3201 102.778 19.0852C102.524 18.8504 102.158 18.733 101.681 18.733C101.177 18.733 100.778 18.8428 100.482 19.0625C100.191 19.2822 99.9936 19.5417 99.8913 19.8409L97.9709 19.5682C98.1224 19.0379 98.3724 18.5947 98.7209 18.2386C99.0694 17.8788 99.4955 17.6098 99.9993 17.4318C100.503 17.25 101.06 17.1591 101.67 17.1591C102.09 17.1591 102.509 17.2083 102.925 17.3068C103.342 17.4053 103.723 17.5682 104.067 17.7955C104.412 18.0189 104.689 18.3239 104.897 18.7102C105.109 19.0966 105.215 19.5795 105.215 20.1591V26H103.238V24.8011H103.17C103.045 25.0436 102.869 25.2708 102.641 25.483C102.418 25.6913 102.136 25.8598 101.795 25.9886C101.458 26.1136 101.062 26.1761 100.607 26.1761ZM101.141 24.6648C101.554 24.6648 101.912 24.5833 102.215 24.4205C102.518 24.2538 102.751 24.0341 102.914 23.7614C103.081 23.4886 103.164 23.1913 103.164 22.8693V21.8409C103.1 21.8939 102.99 21.9432 102.835 21.9886C102.683 22.0341 102.513 22.0739 102.323 22.108C102.134 22.142 101.946 22.1723 101.761 22.1989C101.575 22.2254 101.414 22.2481 101.278 22.267C100.971 22.3087 100.696 22.3769 100.454 22.4716C100.211 22.5663 100.02 22.6989 99.88 22.8693C99.7398 23.036 99.6697 23.2519 99.6697 23.517C99.6697 23.8958 99.808 24.1818 100.085 24.375C100.361 24.5682 100.713 24.6648 101.141 24.6648ZM107.283 26V17.2727H109.249V18.7557H109.352C109.533 18.2557 109.835 17.8655 110.255 17.5852C110.675 17.3011 111.177 17.1591 111.761 17.1591C112.352 17.1591 112.85 17.303 113.255 17.5909C113.664 17.875 113.952 18.2633 114.119 18.7557H114.21C114.403 18.2708 114.728 17.8845 115.187 17.5966C115.649 17.3049 116.196 17.1591 116.829 17.1591C117.632 17.1591 118.287 17.4129 118.795 17.9205C119.302 18.428 119.556 19.1686 119.556 20.142V26H117.494V20.4602C117.494 19.9186 117.35 19.5227 117.062 19.2727C116.774 19.0189 116.422 18.892 116.005 18.892C115.509 18.892 115.121 19.0473 114.84 19.358C114.564 19.6648 114.425 20.0644 114.425 20.5568V26H112.408V20.375C112.408 19.9242 112.272 19.5644 111.999 19.2955C111.73 19.0265 111.378 18.892 110.942 18.892C110.647 18.892 110.378 18.9678 110.136 19.1193C109.893 19.267 109.7 19.4773 109.556 19.75C109.412 20.0189 109.34 20.3333 109.34 20.6932V26H107.283Z" fill="#3E8BFF"/>
</svg>
