<svg width="124" height="40" viewBox="0 0 124 40" fill="none" xmlns="http://www.w3.org/2000/svg">
<path d="M14.282 1.06561V15.625C14.282 16.181 14.0086 16.3316 13.5568 16.3316H11.0959C10.6442 16.3316 10.3708 16.181 10.3708 15.625V3.76437H4.81895V15.6366C4.81895 16.1926 4.56929 16.3432 4.09376 16.3432H1.6329C1.18114 16.3432 0.907715 16.1926 0.907715 15.6366V1.06561C0.907715 0.509638 1.18114 0.359063 1.6329 0.359063H13.5687C14.0086 0.359063 14.282 0.509638 14.282 1.06561Z" fill="#181B1F"/>
<path d="M30.8423 11.212C30.8423 15.0459 27.1094 16.7022 24.1373 16.7022C21.1772 16.7022 17.4918 15.0575 17.4918 11.212V5.4902C17.4918 1.65633 21.1772 0 24.1373 0C27.0975 0 30.8423 1.65633 30.8423 5.4902V11.212ZM26.943 5.82609C26.943 4.27401 25.8017 3.37056 24.1492 3.37056C22.5324 3.37056 21.3793 4.27401 21.3793 5.82609V10.8761C21.3793 12.4282 22.5205 13.3317 24.1492 13.3317C25.7898 13.3317 26.943 12.4282 26.943 10.8761V5.82609Z" fill="#181B1F"/>
<path d="M35.6095 1.06561C35.6095 0.509638 35.8829 0.359063 36.3347 0.359063H46.2732C46.725 0.359063 46.9984 0.509638 46.9984 1.06561V15.625C46.9984 16.181 46.725 16.3316 46.2732 16.3316H43.8124C43.3606 16.3316 43.0872 16.181 43.0872 15.625V3.76437H39.1046L38.5578 11.6754C38.2843 15.6019 37.4165 16.5053 33.529 16.4358C32.8871 16.4358 32.7801 16.2853 32.7801 15.7525V13.934C32.7801 13.517 32.8752 13.2738 33.3269 13.2738C34.492 13.2738 34.6465 12.5904 34.7179 11.6522L35.6095 1.06561Z" fill="#181B1F"/>
<path d="M53.8104 0.359063C54.2621 0.359063 54.5356 0.509638 54.5356 1.06561V9.48622L59.8139 1.18143C60.1349 0.694962 60.3132 0.359063 60.9314 0.359063H63.2734C63.8441 0.359063 63.9986 0.625465 63.9986 1.06561V15.625C63.9986 16.181 63.7252 16.3316 63.2734 16.3316H60.8126C60.3608 16.3316 60.0874 16.181 60.0874 15.625V7.18127L54.809 15.5092C54.488 15.9957 54.3097 16.3316 53.6915 16.3316H51.4208C50.8502 16.3316 50.6957 16.0652 50.6957 15.625V1.06561C50.6957 0.509638 50.9691 0.359063 51.4208 0.359063H53.8104Z" fill="#181B1F"/>
<path d="M79.4652 1.06561V3.081C79.4652 3.52114 79.3107 3.78754 78.74 3.78754H74.9239V15.6366C74.9239 16.1926 74.6505 16.3432 74.1987 16.3432H71.7379C71.2861 16.3432 71.0127 16.1926 71.0127 15.6366V3.78754H67.1728C66.6021 3.78754 66.4476 3.52114 66.4476 3.081V1.06561C66.4476 0.625465 66.6021 0.359063 67.1728 0.359063H78.7281C79.3226 0.359063 79.4652 0.625465 79.4652 1.06561Z" fill="#181B1F"/>
<path d="M94.5633 13.6444V15.6366C94.5633 16.0768 94.4087 16.3432 93.8381 16.3432H82.675C82.1044 16.3432 81.9499 16.0768 81.9499 15.6366V1.06561C81.9499 0.625465 82.1044 0.359063 82.675 0.359063H93.4101C93.9808 0.359063 94.1353 0.625465 94.1353 1.06561V3.081C94.1353 3.52114 93.9808 3.78754 93.4101 3.78754H85.8849V6.42839H92.5661C93.1367 6.42839 93.2912 6.6948 93.2912 7.13494V9.02292C93.2912 9.46306 93.1367 9.72946 92.5661 9.72946H85.8849V12.9379H93.8262C94.4087 12.9379 94.5633 13.2043 94.5633 13.6444Z" fill="#181B1F"/>
<path d="M109.756 15.5787C109.959 15.8683 109.828 16.3316 109.459 16.3316H106.618C106.071 16.3316 105.869 16.2853 105.524 15.6482L103.063 11.3279L100.567 15.6482C100.246 16.2737 100.02 16.3316 99.4731 16.3316H96.6318C96.2633 16.3316 96.1325 15.8683 96.3346 15.5787L100.769 8.15421L96.2633 1.04244C96.1087 0.77604 96.2158 0.359063 96.6318 0.359063H99.5682C100.044 0.359063 100.246 0.555969 100.567 1.06561L103.063 4.96898L105.524 1.06561C105.869 0.555969 106.047 0.359063 106.547 0.359063H109.459C109.887 0.359063 110.006 0.77604 109.828 1.04244L105.346 8.15421L109.756 15.5787Z" fill="#181B1F"/>
<path d="M16.3387 22.7302V37.3244C16.3387 37.8804 16.0653 38.0309 15.6135 38.0309H13.224C12.7722 38.0309 12.4988 37.8804 12.4988 37.3244V29.1007L10.0023 33.3515C9.88338 33.5484 9.65751 33.8612 9.27709 33.8612H8.02882C7.66028 33.8612 7.45818 33.5484 7.32741 33.3515L4.8071 29.1007V37.3244C4.8071 37.8804 4.53367 38.0309 4.08192 38.0309H1.63294C1.18119 38.0309 0.907764 37.8804 0.907764 37.3244V22.7302C0.907764 22.2901 1.06231 22.0237 1.63294 22.0237H4.09381C4.93787 22.0237 5.04487 22.5565 5.23509 22.846L8.647 28.8111L12.0827 22.846C12.261 22.5565 12.3799 22.0237 13.2002 22.0237H15.5897C16.1841 22.0352 16.3387 22.3016 16.3387 22.7302Z" fill="#3E8BFF"/>
<path d="M32.6256 35.3322V37.3244C32.6256 37.7645 32.471 38.0309 31.9004 38.0309H20.7373C20.1667 38.0309 20.0122 37.7645 20.0122 37.3244V22.7534C20.0122 22.3132 20.1667 22.0468 20.7373 22.0468H31.4724C32.0431 22.0468 32.1976 22.3132 32.1976 22.7534V24.7688C32.1976 25.2089 32.0431 25.4753 31.4724 25.4753H23.9472V28.1162H30.6284C31.199 28.1162 31.3535 28.3826 31.3535 28.8227V30.7223C31.3535 31.1624 31.199 31.4288 30.6284 31.4288H23.9472V34.6372H31.8885C32.471 34.6256 32.6256 34.892 32.6256 35.3322Z" fill="#3E8BFF"/>
<path d="M47.2719 37.753H38.1536V39.2819C38.1536 39.8378 37.8802 39.9884 37.4284 39.9884H35.3599C34.9081 39.9884 34.6347 39.8378 34.6347 39.2819V35.1121C34.6347 34.672 34.7892 34.4056 35.3599 34.4056C36.727 34.4056 36.9529 33.699 37.0242 32.8071L37.8207 22.765C37.8207 22.209 38.0942 22.0584 38.5459 22.0584H48.116C48.5677 22.0584 48.8411 22.209 48.8411 22.765V34.4171H50.0419C50.6125 34.4171 50.767 34.6835 50.767 35.1237V39.2935C50.767 39.8494 50.4936 40 50.0419 40H47.9971C47.5453 40 47.2719 39.8494 47.2719 39.2935V37.753ZM39.8774 34.5793H45.0607V25.3363H41.4942L40.876 33.0041C40.8166 33.8959 40.4718 34.3824 39.8774 34.5793Z" fill="#3E8BFF"/>
<path d="M56.5328 22.0584C56.9846 22.0584 57.258 22.209 57.258 22.765V31.1856L62.5364 22.8808C62.8574 22.3943 63.0357 22.0584 63.6539 22.0584H65.9959C66.5665 22.0584 66.721 22.3248 66.721 22.765V37.3244C66.721 37.8804 66.4476 38.0309 65.9959 38.0309H63.535C63.0832 38.0309 62.8098 37.8804 62.8098 37.3244V28.869L57.5314 37.197C57.2104 37.6835 57.0321 38.0194 56.414 38.0194H54.1433C53.5726 38.0194 53.4181 37.753 53.4181 37.3128V22.7534C53.4181 22.1974 53.6915 22.0468 54.1433 22.0468H56.5328V22.0584Z" fill="#3E8BFF"/>
<path d="M84.0541 38.0194H81.4387C80.8918 38.0194 80.6897 37.8688 80.4876 37.2896L79.7862 35.3669H73.6876L72.9861 37.2896C72.784 37.8688 72.5819 38.0194 72.0351 38.0194H69.4197C68.8728 38.0194 68.8728 37.6255 68.9917 37.336L74.5197 22.7997C74.7218 22.2901 74.9952 22.0468 75.5421 22.0468H77.9317C78.4785 22.0468 78.7282 22.2901 78.954 22.7997L84.4583 37.336C84.6128 37.6371 84.6129 38.0194 84.0541 38.0194ZM78.6331 31.9848L76.7666 26.622L74.9002 31.9848H78.6331Z" fill="#3E8BFF"/>
<path d="M121.807 14.791C121.894 15.0262 122.119 15.1823 122.37 15.1823H122.492C122.91 15.1823 123.2 14.7655 123.054 14.3735L121.618 10.5021C121.531 10.2669 121.306 10.1108 121.055 10.1108H120.933C120.515 10.1108 120.225 10.5276 120.371 10.9195L121.807 14.791Z" fill="#3E8BFF"/>
<path fill-rule="evenodd" clip-rule="evenodd" d="M115.645 0.391293C115.557 0.156084 115.333 0 115.082 0H112.742C112.324 0 112.034 0.416781 112.18 0.808708L118.111 16.7967C118.199 17.0319 118.423 17.188 118.674 17.188H121.014C121.432 17.188 121.722 16.7712 121.576 16.3793L115.645 0.391293ZM114.676 1.12584C114.652 1.06242 114.591 1.02062 114.523 1.02062C114.407 1.02062 114.327 1.13695 114.369 1.24494L114.772 2.28399C114.796 2.34742 114.857 2.38922 114.925 2.38922C115.041 2.38922 115.121 2.27288 115.079 2.1649L114.676 1.12584Z" fill="#3E8BFF"/>
</svg>
