<svg width="109" height="40" viewBox="0 0 109 40" fill="none" xmlns="http://www.w3.org/2000/svg">
<path d="M13.3743 1.06561V15.6251C13.3743 16.181 13.1008 16.3316 12.6491 16.3316H10.1882C9.73647 16.3316 9.46304 16.181 9.46304 15.6251V3.76438H3.91123V15.6366C3.91123 16.1926 3.66158 16.3432 3.18605 16.3432H0.725183C0.27343 16.3432 0 16.1926 0 15.6366V1.06561C0 0.509638 0.27343 0.359063 0.725183 0.359063H12.661C13.1008 0.359063 13.3743 0.509638 13.3743 1.06561Z" fill="#181B1F"/>
<path d="M29.9346 11.212C29.9346 15.0459 26.2017 16.7022 23.2296 16.7022C20.2694 16.7022 16.5841 15.0575 16.5841 11.212V5.4902C16.5841 1.65633 20.2694 0 23.2296 0C26.1898 0 29.9346 1.65633 29.9346 5.4902V11.212ZM26.0352 5.82609C26.0352 4.27401 24.894 3.37056 23.2415 3.37056C21.6247 3.37056 20.4715 4.27401 20.4715 5.82609V10.8761C20.4715 12.4282 21.6128 13.3317 23.2415 13.3317C24.8821 13.3317 26.0352 12.4282 26.0352 10.8761V5.82609Z" fill="#181B1F"/>
<path d="M34.7018 1.06561C34.7018 0.509638 34.9752 0.359063 35.427 0.359063H45.3655C45.8173 0.359063 46.0907 0.509638 46.0907 1.06561V15.6251C46.0907 16.181 45.8173 16.3316 45.3655 16.3316H42.9047C42.4529 16.3316 42.1795 16.181 42.1795 15.6251V3.76438H38.1969L37.6501 11.6754C37.3766 15.6019 36.5088 16.5053 32.6213 16.4358C31.9794 16.4358 31.8724 16.2853 31.8724 15.7525V13.934C31.8724 13.517 31.9675 13.2738 32.4192 13.2738C33.5843 13.2738 33.7388 12.5904 33.8102 11.6522L34.7018 1.06561Z" fill="#181B1F"/>
<path d="M52.9027 0.359063C53.3544 0.359063 53.6278 0.509638 53.6278 1.06561V9.48623L58.9062 1.18143C59.2272 0.694962 59.4055 0.359063 60.0237 0.359063H62.3657C62.9363 0.359063 63.0909 0.625465 63.0909 1.06561V15.6251C63.0909 16.181 62.8175 16.3316 62.3657 16.3316H59.9048C59.4531 16.3316 59.1797 16.181 59.1797 15.6251V7.18127L53.9013 15.5092C53.5803 15.9957 53.402 16.3316 52.7838 16.3316H50.5131C49.9425 16.3316 49.7879 16.0652 49.7879 15.6251V1.06561C49.7879 0.509638 50.0614 0.359063 50.5131 0.359063H52.9027Z" fill="#181B1F"/>
<path d="M78.5575 1.06561V3.081C78.5575 3.52114 78.403 3.78754 77.8323 3.78754H74.0162V15.6366C74.0162 16.1926 73.7428 16.3432 73.291 16.3432H70.8302C70.3784 16.3432 70.105 16.1926 70.105 15.6366V3.78754H66.2651C65.6944 3.78754 65.5399 3.52114 65.5399 3.081V1.06561C65.5399 0.625465 65.6944 0.359063 66.2651 0.359063H77.8204C78.4148 0.359063 78.5575 0.625465 78.5575 1.06561Z" fill="#181B1F"/>
<path d="M93.6556 13.6444V15.6366C93.6556 16.0768 93.501 16.3432 92.9304 16.3432H81.7673C81.1967 16.3432 81.0422 16.0768 81.0422 15.6366V1.06561C81.0422 0.625465 81.1967 0.359063 81.7673 0.359063H92.5024C93.073 0.359063 93.2276 0.625465 93.2276 1.06561V3.081C93.2276 3.52114 93.073 3.78754 92.5024 3.78754H84.9772V6.4284H91.6583C92.229 6.4284 92.3835 6.6948 92.3835 7.13494V9.02292C92.3835 9.46306 92.229 9.72946 91.6583 9.72946H84.9772V12.9379H92.9185C93.501 12.9379 93.6556 13.2043 93.6556 13.6444Z" fill="#181B1F"/>
<path d="M108.849 15.5787C109.051 15.8683 108.92 16.3316 108.552 16.3316H105.71C105.163 16.3316 104.961 16.2853 104.617 15.6482L102.156 11.3279L99.6591 15.6482C99.3382 16.2737 99.1123 16.3316 98.5654 16.3316H95.7241C95.3556 16.3316 95.2248 15.8683 95.4269 15.5787L99.8612 8.15422L95.3556 1.04244C95.201 0.77604 95.308 0.359063 95.7241 0.359063H98.6605C99.1361 0.359063 99.3382 0.555969 99.6591 1.06561L102.156 4.96898L104.617 1.06561C104.961 0.555969 105.14 0.359063 105.639 0.359063H108.552C108.98 0.359063 109.098 0.77604 108.92 1.04244L104.438 8.15422L108.849 15.5787Z" fill="#181B1F"/>
<path d="M15.431 22.7302V37.3244C15.431 37.8804 15.1576 38.0309 14.7058 38.0309H12.3163C11.8645 38.0309 11.5911 37.8804 11.5911 37.3244V29.1007L9.09455 33.3515C8.97567 33.5484 8.7498 33.8612 8.36937 33.8612H7.12111C6.75257 33.8612 6.55047 33.5484 6.4197 33.3515L3.89938 29.1007V37.3244C3.89938 37.8804 3.62596 38.0309 3.1742 38.0309H0.72523C0.273477 38.0309 4.87642e-05 37.8804 4.87642e-05 37.3244V22.7302C4.87642e-05 22.2901 0.154594 22.0237 0.72523 22.0237H3.18609C4.03016 22.0237 4.13716 22.5565 4.32737 22.846L7.73929 28.8111L11.175 22.846C11.3533 22.5565 11.4722 22.0237 12.2925 22.0237H14.682C15.2764 22.0352 15.431 22.3016 15.431 22.7302Z" fill="#181B1F"/>
<path d="M31.7179 35.3322V37.3244C31.7179 37.7645 31.5633 38.0309 30.9927 38.0309H19.8296C19.259 38.0309 19.1044 37.7645 19.1044 37.3244V22.7534C19.1044 22.3132 19.259 22.0468 19.8296 22.0468H30.5647C31.1353 22.0468 31.2899 22.3132 31.2899 22.7534V24.7688C31.2899 25.2089 31.1353 25.4753 30.5647 25.4753H23.0394V28.1162H29.7206C30.2913 28.1162 30.4458 28.3826 30.4458 28.8227V30.7223C30.4458 31.1624 30.2913 31.4288 29.7206 31.4288H23.0394V34.6372H30.9808C31.5633 34.6256 31.7179 34.892 31.7179 35.3322Z" fill="#181B1F"/>
<path d="M46.3642 37.753H37.2459V39.2819C37.2459 39.8378 36.9725 39.9884 36.5207 39.9884H34.4522C34.0004 39.9884 33.727 39.8378 33.727 39.2819V35.1121C33.727 34.672 33.8815 34.4056 34.4522 34.4056C35.8193 34.4056 36.0452 33.699 36.1165 32.8071L36.913 22.765C36.913 22.209 37.1865 22.0584 37.6382 22.0584H47.2082C47.66 22.0584 47.9334 22.209 47.9334 22.765V34.4171H49.1341C49.7048 34.4171 49.8593 34.6835 49.8593 35.1237V39.2935C49.8593 39.8494 49.5859 40 49.1341 40H47.0894C46.6376 40 46.3642 39.8494 46.3642 39.2935V37.753ZM38.9697 34.5793H44.153V25.3363H40.5865L39.9683 33.0041C39.9089 33.8959 39.5641 34.3824 38.9697 34.5793Z" fill="#181B1F"/>
<path d="M55.6251 22.0584C56.0769 22.0584 56.3503 22.209 56.3503 22.765V31.1856L61.6287 22.8808C61.9497 22.3943 62.128 22.0584 62.7462 22.0584H65.0882C65.6588 22.0584 65.8133 22.3248 65.8133 22.765V37.3244C65.8133 37.8804 65.5399 38.0309 65.0882 38.0309H62.6273C62.1755 38.0309 61.9021 37.8804 61.9021 37.3244V28.869L56.6237 37.197C56.3027 37.6835 56.1244 38.0194 55.5062 38.0194H53.2356C52.6649 38.0194 52.5104 37.753 52.5104 37.3128V22.7534C52.5104 22.1974 52.7838 22.0468 53.2356 22.0468H55.6251V22.0584Z" fill="#181B1F"/>
<path d="M83.1464 38.0194H80.531C79.9841 38.0194 79.782 37.8688 79.5799 37.2896L78.8785 35.3669H72.7798L72.0784 37.2896C71.8763 37.8688 71.6742 38.0194 71.1274 38.0194H68.512C67.9651 38.0194 67.9651 37.6255 68.084 37.336L73.612 22.7997C73.8141 22.2901 74.0875 22.0468 74.6344 22.0468H77.024C77.5708 22.0468 77.8205 22.2901 78.0463 22.7997L83.5506 37.336C83.7051 37.6371 83.7051 38.0194 83.1464 38.0194ZM77.7253 31.9848L75.8589 26.622L73.9924 31.9848H77.7253Z" fill="#181B1F"/>
</svg>
